<svg xmlns="http://www.w3.org/2000/svg" version="1.1" width="200" height="200" x="0" y="0" viewBox="0 0 512.001 512.001" style="enable-background:new 0 0 512 512" xml:space="preserve" class=""><g transform="matrix(1,0,0,1,0,0)"><path d="M117.111 247.128H56.085a3.467 3.467 0 0 0-3.467 3.467v40.607a3.467 3.467 0 0 0 3.467 3.467h61.026a3.467 3.467 0 0 0 3.467-3.467v-40.607a3.467 3.467 0 0 0-3.467-3.467z" style="" fill="#55a2f0" data-original="#55a2f0" class=""></path><path d="M117.111 247.128H86.617v47.541h30.494a3.467 3.467 0 0 0 3.467-3.467v-40.607a3.467 3.467 0 0 0-3.467-3.467z" style="" fill="#4b9ee2" data-original="#4b9ee2" class=""></path><path d="M403.106 58.338a7.603 7.603 0 0 0-7.604 7.604v76.595c0 4.2 3.404 7.604 7.604 7.604s7.604-3.404 7.604-7.604V65.942a7.604 7.604 0 0 0-7.604-7.604z" style="" fill="#2d5872" data-original="#2d5872" class=""></path><path d="M415.902 171.47H390.31a7.994 7.994 0 0 1-7.994-7.994V135.51a7.994 7.994 0 0 1 7.994-7.994h25.592a7.994 7.994 0 0 1 7.994 7.994v27.966a7.994 7.994 0 0 1-7.994 7.994z" style="" fill="#ff4c4c" data-original="#ff4c4c" class=""></path><path d="M452.017 252.546h-97.822a7.616 7.616 0 0 1-7.616-7.615v-73.834a7.615 7.615 0 0 1 7.616-7.615h97.822a7.615 7.615 0 0 1 7.615 7.615v73.834a7.615 7.615 0 0 1-7.615 7.615z" style="" fill="#f33a3a" data-original="#f33a3a" class=""></path><path d="M483.348 512H311.693V199.929h167.44a4.215 4.215 0 0 1 4.215 4.215V512z" style="" fill="#ff4c4c" data-original="#ff4c4c" class=""></path><path d="M479.133 199.929h-46.625a4.215 4.215 0 0 1 4.215 4.215V512h46.625V204.144a4.215 4.215 0 0 0-4.215-4.215z" style="" fill="#f33a3a" data-original="#f33a3a" class=""></path><path d="M451.246 274.316h-98.362a6.304 6.304 0 0 1-6.304-6.304v-14.579a6.304 6.304 0 0 1 6.304-6.304h98.362a6.304 6.304 0 0 1 6.304 6.304v14.579a6.304 6.304 0 0 1-6.304 6.304zM451.246 336.648h-98.362a6.304 6.304 0 0 1-6.304-6.304v-14.579a6.304 6.304 0 0 1 6.304-6.304h98.362a6.304 6.304 0 0 1 6.304 6.304v14.579a6.304 6.304 0 0 1-6.304 6.304zM451.246 398.98h-98.362a6.304 6.304 0 0 1-6.304-6.304v-14.579a6.304 6.304 0 0 1 6.304-6.304h98.362a6.304 6.304 0 0 1 6.304 6.304v14.579a6.304 6.304 0 0 1-6.304 6.304zM451.246 461.312h-98.362a6.304 6.304 0 0 1-6.304-6.304v-14.579a6.304 6.304 0 0 1 6.304-6.304h98.362a6.304 6.304 0 0 1 6.304 6.304v14.579a6.303 6.303 0 0 1-6.304 6.304z" style="" fill="#e1effb" data-original="#e1effb" class=""></path><path d="M356.319 512h-198.22a5.738 5.738 0 0 1-5.739-5.739V14.92a5.738 5.738 0 0 1 5.739-5.739h198.22a5.738 5.738 0 0 1 5.739 5.739v491.341a5.738 5.738 0 0 1-5.739 5.739z" style="" fill="#ffb125" data-original="#ffb125" class=""></path><path d="M356.32 9.181h-46.625a5.738 5.738 0 0 1 5.739 5.739v491.341a5.738 5.738 0 0 1-5.739 5.739h46.625a5.738 5.738 0 0 0 5.739-5.739V14.92a5.74 5.74 0 0 0-5.739-5.739z" style="" fill="#ff901d" data-original="#ff901d" class=""></path><path d="M371.068 0H140.932a2.849 2.849 0 0 0-2.849 2.849v19.316a2.849 2.849 0 0 0 2.849 2.849h230.136a2.849 2.849 0 0 0 2.849-2.849V2.849A2.849 2.849 0 0 0 371.068 0z" style="" fill="#ff901d" data-original="#ff901d" class=""></path><path d="M209.865 93.9h-27.887a3.557 3.557 0 0 1-3.557-3.557v-34.05a3.557 3.557 0 0 1 3.557-3.557h27.887a3.557 3.557 0 0 1 3.557 3.557v34.051a3.557 3.557 0 0 1-3.557 3.556zM271.153 93.9h-27.887a3.557 3.557 0 0 1-3.557-3.557v-34.05a3.557 3.557 0 0 1 3.557-3.557h27.887a3.557 3.557 0 0 1 3.557 3.557v34.051a3.557 3.557 0 0 1-3.557 3.556zM332.44 93.9h-27.887a3.557 3.557 0 0 1-3.557-3.557v-34.05a3.557 3.557 0 0 1 3.557-3.557h27.887a3.557 3.557 0 0 1 3.557 3.557v34.051a3.556 3.556 0 0 1-3.557 3.556zM209.865 185.753h-27.887a3.557 3.557 0 0 1-3.557-3.557v-34.051a3.557 3.557 0 0 1 3.557-3.557h27.887a3.557 3.557 0 0 1 3.557 3.557v34.051a3.557 3.557 0 0 1-3.557 3.557zM271.153 185.753h-27.887a3.557 3.557 0 0 1-3.557-3.557v-34.051a3.557 3.557 0 0 1 3.557-3.557h27.887a3.557 3.557 0 0 1 3.557 3.557v34.051a3.558 3.558 0 0 1-3.557 3.557zM332.44 185.753h-27.887a3.557 3.557 0 0 1-3.557-3.557v-34.051a3.557 3.557 0 0 1 3.557-3.557h27.887a3.557 3.557 0 0 1 3.557 3.557v34.051a3.556 3.556 0 0 1-3.557 3.557zM209.865 277.606h-27.887a3.557 3.557 0 0 1-3.557-3.557v-34.051a3.557 3.557 0 0 1 3.557-3.557h27.887a3.557 3.557 0 0 1 3.557 3.557v34.051a3.557 3.557 0 0 1-3.557 3.557zM271.153 277.606h-27.887a3.557 3.557 0 0 1-3.557-3.557v-34.051a3.557 3.557 0 0 1 3.557-3.557h27.887a3.557 3.557 0 0 1 3.557 3.557v34.051a3.558 3.558 0 0 1-3.557 3.557zM332.44 277.606h-27.887a3.557 3.557 0 0 1-3.557-3.557v-34.051a3.557 3.557 0 0 1 3.557-3.557h27.887a3.557 3.557 0 0 1 3.557 3.557v34.051a3.556 3.556 0 0 1-3.557 3.557zM271.153 369.459h-27.887a3.557 3.557 0 0 1-3.557-3.557v-34.051a3.557 3.557 0 0 1 3.557-3.557h27.887a3.557 3.557 0 0 1 3.557 3.557v34.051a3.558 3.558 0 0 1-3.557 3.557zM332.44 369.459h-27.887a3.557 3.557 0 0 1-3.557-3.557v-34.051a3.557 3.557 0 0 1 3.557-3.557h27.887a3.557 3.557 0 0 1 3.557 3.557v34.051a3.556 3.556 0 0 1-3.557 3.557zM271.153 461.312h-27.887a3.557 3.557 0 0 1-3.557-3.557v-34.051a3.557 3.557 0 0 1 3.557-3.557h27.887a3.557 3.557 0 0 1 3.557 3.557v34.051a3.558 3.558 0 0 1-3.557 3.557zM332.44 461.312h-27.887a3.557 3.557 0 0 1-3.557-3.557v-34.051a3.557 3.557 0 0 1 3.557-3.557h27.887a3.557 3.557 0 0 1 3.557 3.557v34.051a3.556 3.556 0 0 1-3.557 3.557z" style="" fill="#e1effb" data-original="#e1effb" class=""></path><path d="M243.928 512H33.035a4.383 4.383 0 0 1-4.383-4.383V284.184a4.383 4.383 0 0 1 4.383-4.383h210.893a4.383 4.383 0 0 1 4.383 4.383v223.434a4.382 4.382 0 0 1-4.383 4.382z" style="" fill="#61aff6" data-original="#61aff6" class=""></path><path d="M243.928 279.801h-47.464a4.383 4.383 0 0 1 4.383 4.383v223.434a4.383 4.383 0 0 1-4.383 4.383h47.464a4.383 4.383 0 0 0 4.383-4.383V284.184a4.383 4.383 0 0 0-4.383-4.383z" style="" fill="#55a2f0" data-original="#55a2f0" class=""></path><path d="M86.617 343.174H59.016a4.4 4.4 0 0 1-4.4-4.4v-17.579a4.4 4.4 0 0 1 4.4-4.4h27.601a4.4 4.4 0 0 1 4.4 4.4v17.579a4.4 4.4 0 0 1-4.4 4.4zM150.869 343.174h-27.601a4.4 4.4 0 0 1-4.4-4.4v-17.579a4.4 4.4 0 0 1 4.4-4.4h27.601a4.4 4.4 0 0 1 4.4 4.4v17.579a4.4 4.4 0 0 1-4.4 4.4zM215.121 343.174H187.52a4.4 4.4 0 0 1-4.4-4.4v-17.579a4.4 4.4 0 0 1 4.4-4.4h27.601a4.4 4.4 0 0 1 4.4 4.4v17.579a4.4 4.4 0 0 1-4.4 4.4zM86.617 404.873H59.016a4.4 4.4 0 0 1-4.4-4.4v-17.579a4.4 4.4 0 0 1 4.4-4.4h27.601a4.4 4.4 0 0 1 4.4 4.4v17.579a4.4 4.4 0 0 1-4.4 4.4zM150.869 404.873h-27.601a4.4 4.4 0 0 1-4.4-4.4v-17.579a4.4 4.4 0 0 1 4.4-4.4h27.601a4.4 4.4 0 0 1 4.4 4.4v17.579a4.4 4.4 0 0 1-4.4 4.4zM215.121 404.873H187.52a4.4 4.4 0 0 1-4.4-4.4v-17.579a4.4 4.4 0 0 1 4.4-4.4h27.601a4.4 4.4 0 0 1 4.4 4.4v17.579a4.4 4.4 0 0 1-4.4 4.4zM86.617 466.572H59.016a4.4 4.4 0 0 1-4.4-4.4v-17.579a4.4 4.4 0 0 1 4.4-4.4h27.601a4.4 4.4 0 0 1 4.4 4.4v17.579a4.4 4.4 0 0 1-4.4 4.4zM150.869 466.572h-27.601a4.4 4.4 0 0 1-4.4-4.4v-17.579a4.4 4.4 0 0 1 4.4-4.4h27.601a4.4 4.4 0 0 1 4.4 4.4v17.579a4.4 4.4 0 0 1-4.4 4.4zM215.121 466.572H187.52a4.4 4.4 0 0 1-4.4-4.4v-17.579a4.4 4.4 0 0 1 4.4-4.4h27.601a4.4 4.4 0 0 1 4.4 4.4v17.579a4.4 4.4 0 0 1-4.4 4.4z" style="" fill="#e1effb" data-original="#e1effb" class=""></path><path d="M490.351 488.51H21.649c-6.487 0-11.745 5.258-11.745 11.745 0 6.487 5.258 11.745 11.745 11.745h468.703c6.487 0 11.745-5.258 11.745-11.745-.001-6.486-5.259-11.745-11.746-11.745z" style="" fill="#2d5872" data-original="#2d5872" class=""></path><path d="M502.022 498.966c-.009-.078-.025-.154-.035-.232a11.483 11.483 0 0 0-.183-1.054c-.011-.049-.026-.097-.038-.146-.09-.379-.198-.75-.324-1.115l-.015-.042a11.791 11.791 0 0 0-.473-1.149v-.001c-1.885-3.968-5.918-6.718-10.603-6.718h-34.88v2.991c0 5.768-4.676 10.445-10.445 10.445H21.649c-4.685 0-8.718-2.75-10.603-6.718a11.677 11.677 0 0 0-1.142 5.027c0 6.486 5.258 11.745 11.745 11.745h468.702c6.487 0 11.745-5.258 11.745-11.745 0-.435-.028-.865-.074-1.288z" style="" fill="#1d4859" data-original="#1d4859" class=""></path></g></svg>